<?xml version="1.0" standalone="no"?>
<!DOCTYPE svg PUBLIC "-//W3C//DTD SVG 20010904//EN"
 "http://www.w3.org/TR/2001/REC-SVG-20010904/DTD/svg10.dtd">
<svg version="1.0" xmlns="http://www.w3.org/2000/svg"
 width="260.000000pt" height="260.000000pt" viewBox="0 0 260.000000 260.000000"
 preserveAspectRatio="xMidYMid meet">
<metadata>
Created by potrace 1.14, written by Peter Selinger 2001-2017
</metadata>
<g transform="translate(0.000000,260.000000) scale(0.100000,-0.100000)"
fill="#000000" stroke="none">
<path d="M262 2277 c-1 -21 5 -25 54 -36 104 -24 124 -54 304 -471 54 -124
103 -238 110 -255 7 -16 21 -48 30 -70 10 -22 29 -68 44 -102 14 -35 37 -86
50 -115 13 -29 36 -82 51 -118 15 -36 37 -87 49 -115 13 -27 87 -202 167 -387
137 -320 145 -337 170 -338 23 0 30 8 49 53 12 28 42 95 65 147 53 117 135
298 165 365 13 28 35 77 50 110 15 33 44 98 65 145 20 47 51 114 67 150 17 36
45 99 63 140 18 41 46 104 63 140 16 36 49 108 72 160 87 196 189 397 223 441
41 53 114 105 168 119 31 9 37 14 35 35 l-1 25 -325 -2 c-323 -3 -325 -3 -326
-24 -1 -19 6 -22 63 -27 77 -8 145 -36 168 -71 39 -59 34 -122 -17 -256 -21
-55 -368 -835 -431 -968 l-20 -44 -58 139 c-32 76 -65 152 -73 168 -22 45
-310 718 -346 809 -42 106 -45 149 -13 181 14 13 42 28 62 32 20 4 39 8 44 9
4 1 32 2 62 3 51 1 55 3 51 24 l-3 22 -474 3 -475 2 -2 -23z"/>
</g>
</svg>
